<svg id="Capa_1" enable-background="new 0 0 512.007 512.007" height="512" viewBox="0 0 512.007 512.007" width="512" xmlns="http://www.w3.org/2000/svg" xmlns:xlink="http://www.w3.org/1999/xlink"><linearGradient id="SVGID_1_" gradientUnits="userSpaceOnUse" x1="256.004" x2="256.004" y1="512.007" y2="0"><stop offset="0" stop-color="#00b59c"/><stop offset="1" stop-color="#9cffac"/></linearGradient><g><g><path d="m436.004 60.007c-87.246 0-145.474-39.653-167.402-54.58l-4.277-2.9c-5.039-3.369-11.602-3.369-16.641 0l-4.307 2.915c-23.979 16.333-80.142 54.565-167.373 54.565-8.291 0-15 6.709-15 15v172.259c0 119.956 76.465 226.04 190.254 263.965 1.538.513 3.149.776 4.746.776s3.208-.264 4.746-.776c113.789-37.925 190.254-144.009 190.254-263.965v-172.259c0-8.291-6.709-15-15-15zm-15 187.259c0 105.352-66.094 198.706-165 233.877-98.906-35.171-165-128.525-165-233.877v-157.61c83.057-3.926 139.731-39.492 165-56.528 25.283 17.051 81.958 52.617 165 56.528zm-176.162-150.278c-9.609 10.708-93.838 106.128-93.838 160.02 0 52.755 39.25 96.127 90 103.484v46.516c0 8.291 6.709 15 15 15s15-6.709 15-15v-46.516c50.75-7.357 90-50.729 90-103.484 0-53.892-84.229-149.312-93.838-160.02-5.684-6.328-16.641-6.328-22.324 0zm86.162 160.019c0 36.216-25.809 66.513-60 73.482v-73.482c0-8.291-6.709-15-15-15s-15 6.709-15 15v73.482c-34.191-6.969-60-37.266-60-73.482 0-28.594 42.246-88.257 75-127.119 32.754 38.848 75 98.496 75 127.119z" fill="url(#SVGID_1_)"/></g></g></svg>